<?xml version="1.0" encoding="UTF-8" standalone="no"?>
<svg
   width="98"
   height="23"
   viewBox="0 0 98 23"
   fill="none"
   version="1.1"
   id="svg9"
   sodipodi:docname="LogoDesigual.svg"
   xmlns:inkscape="http://www.inkscape.org/namespaces/inkscape"
   xmlns:sodipodi="http://sodipodi.sourceforge.net/DTD/sodipodi-0.dtd"
   xmlns="http://www.w3.org/2000/svg"
   xmlns:svg="http://www.w3.org/2000/svg">
  <defs
     id="defs9" />
  <sodipodi:namedview
     id="namedview9"
     pagecolor="#ffffff"
     bordercolor="#000000"
     borderopacity="0.25"
     inkscape:showpageshadow="2"
     inkscape:pageopacity="0.0"
     inkscape:pagecheckerboard="0"
     inkscape:deskcolor="#d1d1d1">
    <inkscape:page
       x="0"
       y="0"
       width="98"
       height="23"
       id="page2"
       margin="0"
       bleed="0" />
  </sodipodi:namedview>
  <path
     d="m 56.867428,5.007778 h -3.1204 v 6.84224 c 0,3.4208 2.2646,5.6865 5.7314,5.709 3.4445,0 5.7325,-2.2644 5.7325,-5.6856 v -6.86564 h -3.1205 v 6.63384 c 0,1.7797 -1.0393,2.9826 -2.612,2.9826 -1.5478,0 -2.611,-1.2029 -2.611,-2.9826 v -6.63384"
     fill="#2c2926"
     id="path2" />
  <path
     d="m 73.736106,15.071 c -1.8952,0 -3.2585,-1.5952 -3.2585,-3.5594 0,-1.96518 1.3858,-3.51448 3.281,-3.51448 1.8732,0 3.2127,1.5493 3.2127,3.53688 -0.0225,1.9418 -1.3858,3.537 -3.2352,3.537 z m 3.2127,2.5664 h 3.143 V 5.40873 h -3.143 v 1.2249 c -0.8783,-0.99313 -2.1269,-1.59527 -3.7211,-1.59527 -3.3981,0 -5.8706,2.77421 -5.8706,6.49564 0,3.8151 2.6345,6.4723 5.8706,6.4723 1.5942,0 2.8428,-0.647 3.7211,-1.6875 v 1.3186"
     fill="#2c2926"
     id="path3" />
  <path
     d="m 82.576584,18.038682 h 3.1205 V 0.4709383 h -3.1205 V 18.038682"
     fill="#2c2926"
     id="path4" />
  <path
     d="m 16.301068,3.7783384 c 3.790041,0 6.266961,2.17932 6.266961,5.52364 0,3.3931006 -2.47692,5.5732006 -6.242191,5.5732006 h -2.32853 V 3.7783384 Z m -5.79534,14.3166406 h 5.96859 c 5.696411,0 9.783411,-3.6414 9.783411,-8.7187006 0,-5.15247 -4.1364,-8.8185425 -9.907131,-8.8185425 h -5.820105 l -0.02477,17.5372431"
     fill="#2c2926"
     id="path5" />
  <path
     d="m 30.661436,8.5536472 c 0,-0.67056 0.6471,-1.15566 1.7099,-1.15566 1.1789,0 2.1958,0.39294 3.0057,1.36348 l 1.7561,-1.84812 c -0.9246,-1.27248 -2.6583,-2.01148 -4.8541,-2.01148 -3.1203,0 -4.6916,1.77981 -4.6916,3.65178 0,4.3919598 6.5648,3.3285598 6.5648,5.5245598 0,0.7627 -0.6246,1.2712 -1.8268,1.2712 -1.4556,0 -2.6344,-0.5085 -3.583,-1.548 l -1.7333,1.9881 c 1.0404,1.2249 2.82,2.0799 5.1318,2.0799 3.3283,0 5.0845,-1.7572 5.0845,-3.8372 0.0234,-4.6001698 -6.564,-3.329 -6.564,-5.4785598"
     fill="#2c2926"
     id="path6" />
  <path
     d="m 45.156842,13.875229 c -1.8034,0 -3.1668,-1.4333 -3.1668,-3.2593 0,-1.8032002 1.3634,-3.2602302 3.1668,-3.2602302 1.8255,0 3.143,1.45703 3.143,3.2602302 0,1.8022 -1.3175,3.2593 -3.143,3.2593 z m -3.8147,4.4144 -1.5937,2.4277 c 1.2014,1.0395 3.0732,1.6411 5.3387,1.6411 2.9819,0 6.333,-1.3869 6.333,-6.2189 V 4.7673088 h -3.1441 l 0.0012,1.17905 c -0.8787,-0.94727 -2.1273,-1.4796 -3.7224,-1.4796 -3.1429,0 -5.6852,2.58885 -5.6852,6.1257702 0,3.6751 2.5661,6.2175 5.6852,6.2175 1.5951,0 2.8437,-0.6232 3.7224,-1.6177 v 1.0634 c 0,2.1037 -1.2949,3.2128 -3.3746,3.2128 -1.7336,0.0235 -2.936,-0.7167 -3.5605,-1.1789 z"
     fill="#2c2926"
     id="path8" />
</svg>
