<svg width="98" height="23" viewBox="0 0 98 23" fill="none" xmlns="http://www.w3.org/2000/svg">
<path d="M44.8932 5.40905H41.7728V17.6377H44.8932V5.40905ZM43.2981 3.65274C44.315 3.65274 45.1474 2.86663 45.1474 1.84966C45.1474 0.856071 44.3388 0.000148741 43.2981 0.000148741C42.3051 0.000148741 41.4961 0.832686 41.4961 1.84966C41.4961 2.86663 42.3051 3.65274 43.2981 3.65274Z" fill="#2C2926"/>
<path d="M64.1653 5.40876H61.0449V12.251C61.0449 15.6718 63.3095 17.9375 66.7763 17.96C70.2208 17.96 72.5088 15.6956 72.5088 12.2744V5.40876H69.3883V12.0426C69.3883 13.8223 68.349 15.0252 66.7763 15.0252C65.2285 15.0252 64.1653 13.8223 64.1653 12.0426V5.40876" fill="#2C2926"/>
<path d="M80.5528 15.071C78.6576 15.071 77.2943 13.4758 77.2943 11.5116C77.2943 9.54642 78.6801 7.99712 80.5753 7.99712C82.4485 7.99712 83.788 9.54642 83.788 11.534C83.7655 13.4758 82.4022 15.071 80.5528 15.071V15.071ZM83.7655 17.6374H86.9085V5.40873H83.7655V6.63363C82.8872 5.6405 81.6386 5.03836 80.0444 5.03836C76.6463 5.03836 74.1738 7.81257 74.1738 11.534C74.1738 15.3491 76.8083 18.0063 80.0444 18.0063C81.6386 18.0063 82.8872 17.3593 83.7655 16.3188V17.6374" fill="#2C2926"/>
<path d="M88.9121 17.6377H92.0326V0.0699563H88.9121V17.6377" fill="#2C2926"/>
<path d="M5.79534 3.29716C9.58538 3.29716 12.0623 5.47648 12.0623 8.8208C12.0623 12.2139 9.58538 14.394 5.82011 14.394H3.49158V3.29716H5.79534ZM0 17.6138H5.96859C11.665 17.6138 15.752 13.9724 15.752 8.8951C15.752 3.74263 11.6156 0.0765575 5.84487 0.0765575H0.024765L0 17.6138" fill="#2C2926"/>
<path d="M33.7089 8.71404C33.7089 8.04348 34.356 7.55838 35.4188 7.55838C36.5977 7.55838 37.6146 7.95132 38.4245 8.92186L40.1806 7.07374C39.256 5.80126 37.5223 5.06226 35.3265 5.06226C32.2062 5.06226 30.6349 6.84207 30.6349 8.71404C30.6349 13.106 37.1997 12.0426 37.1997 14.2386C37.1997 15.0013 36.5751 15.5098 35.3729 15.5098C33.9173 15.5098 32.7385 15.0013 31.7899 13.9618L30.0566 15.9499C31.097 17.1748 32.8766 18.0298 35.1884 18.0298C38.5167 18.0298 40.2729 16.2726 40.2729 14.1926C40.2963 9.59243 33.7089 10.8636 33.7089 8.71404" fill="#2C2926"/>
<path d="M23.3053 7.67456C24.7609 7.67456 25.871 8.57553 26.2174 10.3093H20.323C20.6933 8.75996 21.7561 7.67456 23.3053 7.67456V7.67456ZM23.6518 17.9839C25.7315 17.9839 27.4651 17.1515 28.3672 16.0647L26.7484 13.9385C26.032 14.6787 24.9927 15.2097 23.7674 15.2097C21.8722 15.2097 20.5772 13.9844 20.2771 12.2744H29.3378C29.3842 12.0665 29.4067 11.6264 29.4067 11.2575C29.4067 7.72053 26.7484 5.01602 23.259 5.01602C19.7224 5.01602 17.0879 7.9288 17.0879 11.5117C17.0879 15.0711 19.8384 17.9839 23.6518 17.9839Z" fill="#2C2926"/>
<path d="M52.7755 14.5168C50.9721 14.5168 49.6087 13.0835 49.6087 11.2575C49.6087 9.4543 50.9721 7.99727 52.7755 7.99727C54.601 7.99727 55.9185 9.4543 55.9185 11.2575C55.9185 13.0597 54.601 14.5168 52.7755 14.5168V14.5168ZM48.9608 18.9312L47.3671 21.3589C48.5685 22.3984 50.4403 23 52.7058 23C55.6877 23 59.0388 21.6131 59.0388 16.7811V5.40888H55.8947L55.8959 6.58793C55.0172 5.64066 53.7686 5.10833 52.1735 5.10833C49.0306 5.10833 46.4883 7.69718 46.4883 11.2341C46.4883 14.9092 49.0544 17.4516 52.1735 17.4516C53.7686 17.4516 55.0172 16.8284 55.8959 15.8339V16.8973C55.8959 19.001 54.601 20.1101 52.5213 20.1101C50.7877 20.1336 49.5853 19.3934 48.9608 18.9312Z" fill="#2C2926"/>
<path d="M95.428 17.7056C96.4449 17.7056 97.2773 16.9204 97.2773 15.9034C97.2773 14.9089 96.4674 14.0539 95.428 14.0539C94.4336 14.0539 93.625 14.8864 93.625 15.9034C93.625 16.9204 94.4336 17.7056 95.428 17.7056" fill="#2C2926"/>
</svg>
